<?xml version="1.0" standalone="no"?>
<!DOCTYPE svg PUBLIC "-//W3C//DTD SVG 20010904//EN"
 "http://www.w3.org/TR/2001/REC-SVG-20010904/DTD/svg10.dtd">
<svg version="1.0" xmlns="http://www.w3.org/2000/svg"
 width="200.000000pt" height="200.000000pt" viewBox="0 0 200.000000 200.000000"
 preserveAspectRatio="xMidYMid meet">
<metadata>
Created by potrace 1.11, written by Peter Selinger 2001-2013
</metadata>
<g transform="translate(0.000000,200.000000) scale(0.100000,-0.100000)"
fill="#000000" stroke="none">
<path d="M751 1868 c-12 -46 -23 -91 -26 -100 -2 -9 -27 -108 -55 -220 -29
-112 -58 -226 -65 -255 l-12 -51 96 34 c53 19 101 36 106 38 6 2 21 8 35 13
14 6 59 22 100 36 41 14 113 40 160 57 149 54 224 81 270 97 25 8 57 22 72 29
15 8 30 14 33 14 50 -2 45 1 -185 122 -197 104 -306 162 -335 179 -24 14 -136
73 -166 87 -4 1 -16 -35 -28 -80z"/>
<path d="M1450 1518 c-91 -33 -174 -63 -185 -68 -11 -4 -36 -13 -55 -20 -19
-7 -44 -16 -55 -20 -11 -5 -74 -28 -140 -51 -66 -22 -154 -54 -195 -70 -41
-15 -106 -39 -144 -52 l-69 -24 69 -38 c38 -20 103 -56 144 -78 41 -22 143
-77 225 -122 83 -45 186 -101 230 -125 44 -24 99 -54 122 -67 23 -12 44 -23
47 -23 5 0 23 58 31 100 2 8 15 62 29 120 15 58 28 114 30 125 2 11 9 40 16
65 7 25 14 52 15 60 3 13 50 212 75 318 7 26 5 32 -9 31 -9 -1 -90 -28 -181
-61z"/>
<path d="M387 1278 c5 -19 14 -56 48 -178 3 -8 9 -33 15 -55 12 -46 18 -68 25
-92 2 -10 12 -45 20 -78 51 -196 48 -192 120 -173 17 4 54 10 84 13 30 3 57 8
60 9 3 2 29 7 56 10 28 4 63 9 78 12 31 5 31 4 12 -96 -2 -14 -7 -43 -10 -65
-3 -22 -10 -65 -15 -95 -5 -30 -12 -77 -15 -105 -3 -27 -8 -57 -10 -65 -2 -11
52 -43 197 -115 111 -55 206 -102 211 -104 15 -6 14 -3 -86 391 l-74 287 26 6
c14 4 42 9 61 11 59 8 65 9 68 18 2 4 -14 17 -35 28 -21 11 -58 32 -83 46 -72
40 -150 82 -220 120 -36 19 -87 47 -115 62 -27 15 -79 43 -115 62 -36 20 -85
46 -110 60 -205 113 -199 110 -193 86z m698 -517 c5 -18 85 -327 90 -351 2 -8
17 -70 34 -137 31 -123 37 -158 23 -137 -4 6 -85 48 -180 95 l-172 84 6 50 c3
28 7 57 9 65 2 8 7 38 11 65 3 28 7 57 9 65 1 8 5 38 9 65 4 28 10 61 13 75 3
14 5 32 5 41 0 9 5 16 11 17 7 0 32 4 57 9 62 12 69 12 75 -6z"/>
</g>
</svg>
